<svg width="1280" height="720" xmlns="http://www.w3.org/2000/svg" xmlns:xlink="http://www.w3.org/1999/xlink" overflow="hidden"><g><rect x="0" y="0" width="1280" height="720" fill="#FFFFFF"/><path d="M513.745 610.5 641.255 610.5C657.959 610.5 671.5 626.618 671.5 646.5 671.5 666.382 657.959 682.5 641.255 682.5L513.745 682.5C497.041 682.5 483.5 666.382 483.5 646.5 483.5 626.618 497.041 610.5 513.745 610.5Z" stroke="#172C51" stroke-width="1.33333" stroke-miterlimit="8" fill="#4472C4" fill-rule="evenodd"/><text fill="#FFFFFF" font-family="Calibri,Calibri_MSFontService,sans-serif" font-weight="400" font-size="24" transform="translate(554.95 654)">Stop</text><path d="M439.5 314.5 577.5 237.5 715.5 314.5 577.5 391.5Z" stroke="#172C51" stroke-width="1.33333" stroke-miterlimit="8" fill="#4472C4" fill-rule="evenodd"/><text fill="#FFFFFF" font-family="Calibri,Calibri_MSFontService,sans-serif" font-weight="400" font-size="24" transform="translate(544 292)">Sensor</text><text fill="#FFFFFF" font-family="Calibri,Calibri_MSFontService,sans-serif" font-weight="400" font-size="24" transform="translate(536.18 321)">value &lt;=</text><text fill="#FFFFFF" font-family="Calibri,Calibri_MSFontService,sans-serif" font-weight="400" font-size="24" transform="translate(530.24 350)">threshold</text><rect x="468.5" y="464.5" width="218" height="72" stroke="#172C51" stroke-width="1.33333" stroke-miterlimit="8" fill="#4472C4"/><text fill="#FFFFFF" font-family="Calibri,Calibri_MSFontService,sans-serif" font-weight="400" font-size="24" transform="translate(519.896 508)">Go Forward</text><path d="M513.745 91.5001 641.255 91.5001C657.959 91.5001 671.5 107.618 671.5 127.5 671.5 147.382 657.959 163.5 641.255 163.5L513.745 163.5C497.041 163.5 483.5 147.382 483.5 127.5 483.5 107.618 497.041 91.5001 513.745 91.5001Z" stroke="#172C51" stroke-width="1.33333" stroke-miterlimit="8" fill="#4472C4" fill-rule="evenodd"/><text fill="#FFFFFF" font-family="Calibri,Calibri_MSFontService,sans-serif" font-weight="400" font-size="24" transform="translate(553.73 135)">Start</text><path d="M439 315 415 315 416 314 416 646.364 415 645.364 476.742 645.364 476.742 647.364 414 647.364 414 313 439 313ZM475.409 642.364 483.409 646.364 475.409 650.364Z"/><path d="M574.672 383.015 577.5 391.5 569.015 388.672Z" fill="#4472C4"/><path d="M1-1.43164e-06 1.0001 66.6668-0.999905 66.6668-1 1.43164e-06ZM4.00009 65.3334 0.000104987 73.3334-3.99991 65.3334Z" transform="matrix(-1 0 0 1 577 391)"/><path d="M0-1 54.3183-1 54.3183 187.424 35.985 187.424 35.985 185.424 53.3183 185.424 52.3183 186.424 52.3183 0 53.3183 1 0 1ZM37.3183 190.424 29.3183 186.424 37.3183 182.424Z" transform="matrix(1 0 0 -1 686 500.424)"/><path d="M578 163 578 229.667 576 229.667 576 163ZM581 228.333 577 236.333 573 228.333Z"/><text font-family="Calibri,Calibri_MSFontService,sans-serif" font-weight="400" font-size="24" transform="translate(348.686 395)">Yes</text><text font-family="Calibri,Calibri_MSFontService,sans-serif" font-weight="400" font-size="24" transform="translate(601.771 427)">No</text></g></svg>